<mxfile host="app.diagrams.net" modified="2024-06-08T14:11:13.630Z" agent="Mozilla/5.0 (Windows NT 10.0; Win64; x64) AppleWebKit/537.36 (KHTML, like Gecko) Chrome/125.0.0.0 Safari/537.36" etag="C17HOnR1Y4VVrtryi0xY" version="24.5.2" type="github">
  <diagram name="페이지-1" id="BqxZUzJzHNF7gy7mGOBP">
    <mxGraphModel dx="1434" dy="738" grid="0" gridSize="10" guides="1" tooltips="1" connect="1" arrows="1" fold="1" page="0" pageScale="1" pageWidth="827" pageHeight="1169" math="0" shadow="0">
      <root>
        <mxCell id="0" />
        <mxCell id="1" parent="0" />
        <mxCell id="omk36JWC1_oTxwrru2Ip-1" style="edgeStyle=orthogonalEdgeStyle;rounded=0;orthogonalLoop=1;jettySize=auto;html=1;exitX=1;exitY=0.25;exitDx=0;exitDy=0;entryX=0;entryY=0.25;entryDx=0;entryDy=0;dashed=1;" edge="1" parent="1" source="omk36JWC1_oTxwrru2Ip-2" target="omk36JWC1_oTxwrru2Ip-5">
          <mxGeometry relative="1" as="geometry" />
        </mxCell>
        <mxCell id="omk36JWC1_oTxwrru2Ip-2" value="&lt;div style=&quot;font-size: 13px;&quot;&gt;&lt;div style=&quot;font-size: 13px;&quot;&gt;WebSocketInterceptor&lt;/div&gt;&lt;/div&gt;" style="swimlane;fontStyle=0;childLayout=stackLayout;horizontal=1;startSize=30;horizontalStack=0;resizeParent=1;resizeParentMax=0;resizeLast=0;collapsible=1;marginBottom=0;whiteSpace=wrap;html=1;fontColor=default;labelBackgroundColor=none;fontSize=13;fontFamily=Verdana;" vertex="1" parent="1">
          <mxGeometry x="138" y="118" width="190" height="60" as="geometry" />
        </mxCell>
        <mxCell id="omk36JWC1_oTxwrru2Ip-3" value="preSend()&lt;div style=&quot;padding: 0px; margin: 0px;&quot;&gt;&lt;br style=&quot;padding: 0px; margin: 0px; text-wrap: nowrap;&quot;&gt;&lt;/div&gt;" style="text;strokeColor=none;fillColor=none;align=left;verticalAlign=middle;spacingLeft=4;spacingRight=4;overflow=hidden;points=[[0,0.5],[1,0.5]];portConstraint=eastwest;rotatable=0;whiteSpace=wrap;html=1;fontFamily=Verdana;" vertex="1" parent="omk36JWC1_oTxwrru2Ip-2">
          <mxGeometry y="30" width="190" height="30" as="geometry" />
        </mxCell>
        <mxCell id="omk36JWC1_oTxwrru2Ip-4" style="edgeStyle=orthogonalEdgeStyle;rounded=0;orthogonalLoop=1;jettySize=auto;html=1;exitX=1;exitY=0.25;exitDx=0;exitDy=0;entryX=0;entryY=0.25;entryDx=0;entryDy=0;dashed=1;" edge="1" parent="1" source="omk36JWC1_oTxwrru2Ip-5" target="omk36JWC1_oTxwrru2Ip-7">
          <mxGeometry relative="1" as="geometry" />
        </mxCell>
        <mxCell id="omk36JWC1_oTxwrru2Ip-5" value="&lt;div style=&quot;font-size: 13px;&quot;&gt;&lt;div style=&quot;font-size: 13px;&quot;&gt;&lt;div style=&quot;font-size: 13px;&quot;&gt;StompCommandHandlerSimpleFactory&lt;/div&gt;&lt;/div&gt;&lt;/div&gt;" style="swimlane;fontStyle=0;childLayout=stackLayout;horizontal=1;startSize=30;horizontalStack=0;resizeParent=1;resizeParentMax=0;resizeLast=0;collapsible=1;marginBottom=0;whiteSpace=wrap;html=1;labelBackgroundColor=none;fontColor=default;fontSize=13;fontFamily=Verdana;" vertex="1" parent="1">
          <mxGeometry x="374" y="118" width="340" height="60" as="geometry" />
        </mxCell>
        <mxCell id="omk36JWC1_oTxwrru2Ip-6" value="getHandler()&lt;div style=&quot;padding: 0px; margin: 0px;&quot;&gt;&lt;br style=&quot;padding: 0px; margin: 0px; text-wrap: nowrap;&quot;&gt;&lt;/div&gt;" style="text;strokeColor=none;fillColor=none;align=left;verticalAlign=middle;spacingLeft=4;spacingRight=4;overflow=hidden;points=[[0,0.5],[1,0.5]];portConstraint=eastwest;rotatable=0;whiteSpace=wrap;html=1;fontFamily=Verdana;" vertex="1" parent="omk36JWC1_oTxwrru2Ip-5">
          <mxGeometry y="30" width="340" height="30" as="geometry" />
        </mxCell>
        <mxCell id="omk36JWC1_oTxwrru2Ip-7" value="&lt;div style=&quot;font-size: 13px;&quot;&gt;&lt;div style=&quot;font-size: 13px;&quot;&gt;&lt;div style=&quot;font-size: 13px;&quot;&gt;StompCommandHandler&lt;/div&gt;&lt;/div&gt;&lt;/div&gt;" style="swimlane;fontStyle=0;childLayout=stackLayout;horizontal=1;startSize=30;horizontalStack=0;resizeParent=1;resizeParentMax=0;resizeLast=0;collapsible=1;marginBottom=0;whiteSpace=wrap;html=1;labelBackgroundColor=none;fontColor=default;fontSize=13;fontFamily=Verdana;" vertex="1" parent="1">
          <mxGeometry x="760" y="118" width="330" height="60" as="geometry" />
        </mxCell>
        <mxCell id="omk36JWC1_oTxwrru2Ip-8" value="handle()&lt;div style=&quot;padding: 0px; margin: 0px;&quot;&gt;&lt;br style=&quot;padding: 0px; margin: 0px; text-wrap: nowrap;&quot;&gt;&lt;/div&gt;" style="text;strokeColor=none;fillColor=none;align=left;verticalAlign=middle;spacingLeft=4;spacingRight=4;overflow=hidden;points=[[0,0.5],[1,0.5]];portConstraint=eastwest;rotatable=0;whiteSpace=wrap;html=1;fontFamily=Verdana;" vertex="1" parent="omk36JWC1_oTxwrru2Ip-7">
          <mxGeometry y="30" width="330" height="30" as="geometry" />
        </mxCell>
        <mxCell id="omk36JWC1_oTxwrru2Ip-15" value="&lt;div style=&quot;font-size: 13px;&quot;&gt;&lt;div style=&quot;font-size: 13px;&quot;&gt;&lt;div style=&quot;font-size: 13px;&quot;&gt;ConnectCommandHandler&lt;/div&gt;&lt;/div&gt;&lt;/div&gt;" style="swimlane;fontStyle=0;childLayout=stackLayout;horizontal=1;startSize=30;horizontalStack=0;resizeParent=1;resizeParentMax=0;resizeLast=0;collapsible=1;marginBottom=0;whiteSpace=wrap;html=1;labelBackgroundColor=none;fontColor=default;fontSize=13;fontFamily=Verdana;" vertex="1" parent="1">
          <mxGeometry x="700" y="300" width="215" height="60" as="geometry" />
        </mxCell>
        <mxCell id="omk36JWC1_oTxwrru2Ip-16" value="&lt;div style=&quot;padding: 0px; margin: 0px;&quot;&gt;&lt;br style=&quot;padding: 0px; margin: 0px; text-wrap: nowrap;&quot;&gt;&lt;/div&gt;" style="text;strokeColor=none;fillColor=none;align=left;verticalAlign=middle;spacingLeft=4;spacingRight=4;overflow=hidden;points=[[0,0.5],[1,0.5]];portConstraint=eastwest;rotatable=0;whiteSpace=wrap;html=1;fontFamily=Verdana;" vertex="1" parent="omk36JWC1_oTxwrru2Ip-15">
          <mxGeometry y="30" width="215" height="30" as="geometry" />
        </mxCell>
        <mxCell id="omk36JWC1_oTxwrru2Ip-17" value="&lt;div style=&quot;font-size: 13px;&quot;&gt;&lt;div style=&quot;font-size: 13px;&quot;&gt;&lt;div style=&quot;font-size: 13px;&quot;&gt;SubscribeCommandHandler&lt;/div&gt;&lt;/div&gt;&lt;/div&gt;" style="swimlane;fontStyle=0;childLayout=stackLayout;horizontal=1;startSize=30;horizontalStack=0;resizeParent=1;resizeParentMax=0;resizeLast=0;collapsible=1;marginBottom=0;whiteSpace=wrap;html=1;labelBackgroundColor=none;fontColor=default;fontSize=13;fontFamily=Verdana;" vertex="1" parent="1">
          <mxGeometry x="950" y="300" width="195" height="60" as="geometry" />
        </mxCell>
        <mxCell id="omk36JWC1_oTxwrru2Ip-18" value="&lt;div style=&quot;padding: 0px; margin: 0px;&quot;&gt;&lt;br style=&quot;padding: 0px; margin: 0px; text-wrap: nowrap;&quot;&gt;&lt;/div&gt;" style="text;strokeColor=none;fillColor=none;align=left;verticalAlign=middle;spacingLeft=4;spacingRight=4;overflow=hidden;points=[[0,0.5],[1,0.5]];portConstraint=eastwest;rotatable=0;whiteSpace=wrap;html=1;fontFamily=Verdana;" vertex="1" parent="omk36JWC1_oTxwrru2Ip-17">
          <mxGeometry y="30" width="195" height="30" as="geometry" />
        </mxCell>
        <mxCell id="omk36JWC1_oTxwrru2Ip-31" style="edgeStyle=orthogonalEdgeStyle;rounded=0;orthogonalLoop=1;jettySize=auto;html=1;exitX=0.5;exitY=0;exitDx=0;exitDy=0;entryX=0.503;entryY=1;entryDx=0;entryDy=0;entryPerimeter=0;" edge="1" parent="1" source="omk36JWC1_oTxwrru2Ip-17" target="omk36JWC1_oTxwrru2Ip-8">
          <mxGeometry relative="1" as="geometry">
            <mxPoint x="874.1199999999999" y="389.99" as="targetPoint" />
          </mxGeometry>
        </mxCell>
        <mxCell id="omk36JWC1_oTxwrru2Ip-32" style="edgeStyle=orthogonalEdgeStyle;rounded=0;orthogonalLoop=1;jettySize=auto;html=1;exitX=0.5;exitY=0;exitDx=0;exitDy=0;entryX=0.497;entryY=1;entryDx=0;entryDy=0;entryPerimeter=0;" edge="1" parent="1" source="omk36JWC1_oTxwrru2Ip-15" target="omk36JWC1_oTxwrru2Ip-8">
          <mxGeometry relative="1" as="geometry">
            <mxPoint x="822.9200000000001" y="389.99" as="targetPoint" />
          </mxGeometry>
        </mxCell>
        <mxCell id="omk36JWC1_oTxwrru2Ip-33" value="SimpleFactory" style="text;html=1;align=center;verticalAlign=middle;whiteSpace=wrap;rounded=0;fillColor=#fff2cc;strokeColor=#d6b656;" vertex="1" parent="1">
          <mxGeometry x="488.5" y="79" width="111" height="30" as="geometry" />
        </mxCell>
        <mxCell id="omk36JWC1_oTxwrru2Ip-34" value="Strategy 패턴" style="text;html=1;align=center;verticalAlign=middle;whiteSpace=wrap;rounded=0;fillColor=#fff2cc;strokeColor=#d6b656;" vertex="1" parent="1">
          <mxGeometry x="1100" y="130" width="129" height="30" as="geometry" />
        </mxCell>
      </root>
    </mxGraphModel>
  </diagram>
</mxfile>
